<mxfile host="app.diagrams.net" agent="Mozilla/5.0 (X11; Linux x86_64) AppleWebKit/537.36 (KHTML, like Gecko) Chrome/138.0.0.0 Safari/537.36 OPR/122.0.0.0" version="28.2.5">
  <diagram name="PÃ¡gina-1" id="a3Z4IiITHG0NOHwEHS8t">
    <mxGraphModel dx="2847" dy="1992" grid="1" gridSize="10" guides="1" tooltips="1" connect="1" arrows="1" fold="1" page="1" pageScale="1" pageWidth="827" pageHeight="1169" math="0" shadow="0">
      <root>
        <mxCell id="0" />
        <mxCell id="1" parent="0" />
        <mxCell id="XHkAB7lpq5Ak0-Q2Nuyg-1" value="users" style="whiteSpace=wrap;html=1;align=center;" parent="1" vertex="1">
          <mxGeometry x="-200" y="310" width="100" height="40" as="geometry" />
        </mxCell>
        <mxCell id="k6fut7D51PjR7yF_qjCp-1" value="roles" style="whiteSpace=wrap;html=1;align=center;" vertex="1" parent="1">
          <mxGeometry x="410" y="310" width="100" height="40" as="geometry" />
        </mxCell>
        <mxCell id="k6fut7D51PjR7yF_qjCp-2" value="" style="edgeStyle=entityRelationEdgeStyle;fontSize=12;html=1;endArrow=ERoneToMany;rounded=0;" edge="1" parent="1" source="k6fut7D51PjR7yF_qjCp-12" target="k6fut7D51PjR7yF_qjCp-1">
          <mxGeometry width="100" height="100" relative="1" as="geometry">
            <mxPoint x="550" y="540" as="sourcePoint" />
            <mxPoint x="320" y="400" as="targetPoint" />
          </mxGeometry>
        </mxCell>
        <mxCell id="k6fut7D51PjR7yF_qjCp-3" value="products" style="whiteSpace=wrap;html=1;align=center;" vertex="1" parent="1">
          <mxGeometry x="-200" y="840" width="100" height="40" as="geometry" />
        </mxCell>
        <mxCell id="k6fut7D51PjR7yF_qjCp-4" value="categories" style="whiteSpace=wrap;html=1;align=center;" vertex="1" parent="1">
          <mxGeometry x="400" y="840" width="100" height="40" as="geometry" />
        </mxCell>
        <mxCell id="k6fut7D51PjR7yF_qjCp-6" value="shopping_carts" style="whiteSpace=wrap;html=1;align=center;" vertex="1" parent="1">
          <mxGeometry x="-200" y="-40" width="100" height="40" as="geometry" />
        </mxCell>
        <mxCell id="k6fut7D51PjR7yF_qjCp-8" value="tiene" style="shape=rhombus;perimeter=rhombusPerimeter;whiteSpace=wrap;html=1;align=center;" vertex="1" parent="1">
          <mxGeometry x="-440" y="-50" width="120" height="60" as="geometry" />
        </mxCell>
        <mxCell id="k6fut7D51PjR7yF_qjCp-11" value="users_cards" style="whiteSpace=wrap;html=1;align=center;" vertex="1" parent="1">
          <mxGeometry x="-600" y="310" width="100" height="40" as="geometry" />
        </mxCell>
        <mxCell id="k6fut7D51PjR7yF_qjCp-12" value="tiene" style="shape=rhombus;perimeter=rhombusPerimeter;whiteSpace=wrap;html=1;align=center;" vertex="1" parent="1">
          <mxGeometry x="190" y="300" width="120" height="60" as="geometry" />
        </mxCell>
        <mxCell id="k6fut7D51PjR7yF_qjCp-13" value="" style="edgeStyle=entityRelationEdgeStyle;fontSize=12;html=1;endArrow=ERoneToMany;rounded=0;" edge="1" parent="1" source="XHkAB7lpq5Ak0-Q2Nuyg-1" target="k6fut7D51PjR7yF_qjCp-12">
          <mxGeometry width="100" height="100" relative="1" as="geometry">
            <mxPoint x="440" y="350" as="sourcePoint" />
            <mxPoint y="400" as="targetPoint" />
          </mxGeometry>
        </mxCell>
        <mxCell id="k6fut7D51PjR7yF_qjCp-14" value="posee" style="shape=rhombus;perimeter=rhombusPerimeter;whiteSpace=wrap;html=1;align=center;" vertex="1" parent="1">
          <mxGeometry x="-413" y="300" width="120" height="60" as="geometry" />
        </mxCell>
        <mxCell id="k6fut7D51PjR7yF_qjCp-21" value="cart_products" style="shape=associativeEntity;whiteSpace=wrap;html=1;align=center;" vertex="1" parent="1">
          <mxGeometry x="-700" y="-50" width="140" height="60" as="geometry" />
        </mxCell>
        <mxCell id="k6fut7D51PjR7yF_qjCp-25" value="order_products" style="shape=associativeEntity;whiteSpace=wrap;html=1;align=center;" vertex="1" parent="1">
          <mxGeometry x="-630" y="710" width="140" height="60" as="geometry" />
        </mxCell>
        <mxCell id="k6fut7D51PjR7yF_qjCp-26" value="order" style="whiteSpace=wrap;html=1;align=center;" vertex="1" parent="1">
          <mxGeometry x="-610" y="450" width="100" height="40" as="geometry" />
        </mxCell>
        <mxCell id="k6fut7D51PjR7yF_qjCp-31" value="sanctions" style="whiteSpace=wrap;html=1;align=center;" vertex="1" parent="1">
          <mxGeometry x="200" y="150" width="100" height="40" as="geometry" />
        </mxCell>
        <mxCell id="k6fut7D51PjR7yF_qjCp-32" value="notifications" style="whiteSpace=wrap;html=1;align=center;" vertex="1" parent="1">
          <mxGeometry x="-460" y="60" width="100" height="40" as="geometry" />
        </mxCell>
        <mxCell id="k6fut7D51PjR7yF_qjCp-33" value="1" style="text;strokeColor=none;fillColor=none;spacingLeft=4;spacingRight=4;overflow=hidden;rotatable=0;points=[[0,0.5],[1,0.5]];portConstraint=eastwest;fontSize=12;whiteSpace=wrap;html=1;" vertex="1" parent="1">
          <mxGeometry x="-100" y="300" width="20" height="30" as="geometry" />
        </mxCell>
        <mxCell id="k6fut7D51PjR7yF_qjCp-34" value="N" style="text;strokeColor=none;fillColor=none;spacingLeft=4;spacingRight=4;overflow=hidden;rotatable=0;points=[[0,0.5],[1,0.5]];portConstraint=eastwest;fontSize=12;whiteSpace=wrap;html=1;" vertex="1" parent="1">
          <mxGeometry x="390" y="300" width="20" height="30" as="geometry" />
        </mxCell>
        <mxCell id="k6fut7D51PjR7yF_qjCp-35" value="1:N" style="text;strokeColor=none;fillColor=none;spacingLeft=4;spacingRight=4;overflow=hidden;rotatable=0;points=[[0,0.5],[1,0.5]];portConstraint=eastwest;fontSize=12;whiteSpace=wrap;html=1;" vertex="1" parent="1">
          <mxGeometry x="235" y="270" width="30" height="30" as="geometry" />
        </mxCell>
        <mxCell id="k6fut7D51PjR7yF_qjCp-36" value="" style="edgeStyle=entityRelationEdgeStyle;fontSize=12;html=1;endArrow=ERoneToMany;rounded=0;" edge="1" parent="1" source="XHkAB7lpq5Ak0-Q2Nuyg-1" target="k6fut7D51PjR7yF_qjCp-14">
          <mxGeometry width="100" height="100" relative="1" as="geometry">
            <mxPoint x="-90" y="340" as="sourcePoint" />
            <mxPoint x="10" y="340" as="targetPoint" />
          </mxGeometry>
        </mxCell>
        <mxCell id="k6fut7D51PjR7yF_qjCp-37" value="" style="edgeStyle=entityRelationEdgeStyle;fontSize=12;html=1;endArrow=ERoneToMany;rounded=0;" edge="1" parent="1" source="k6fut7D51PjR7yF_qjCp-14" target="k6fut7D51PjR7yF_qjCp-11">
          <mxGeometry width="100" height="100" relative="1" as="geometry">
            <mxPoint x="-360" y="330" as="sourcePoint" />
            <mxPoint x="-283" y="340" as="targetPoint" />
          </mxGeometry>
        </mxCell>
        <mxCell id="k6fut7D51PjR7yF_qjCp-38" value="1" style="text;strokeColor=none;fillColor=none;spacingLeft=4;spacingRight=4;overflow=hidden;rotatable=0;points=[[0,0.5],[1,0.5]];portConstraint=eastwest;fontSize=12;whiteSpace=wrap;html=1;" vertex="1" parent="1">
          <mxGeometry x="-220" y="300" width="20" height="30" as="geometry" />
        </mxCell>
        <mxCell id="k6fut7D51PjR7yF_qjCp-39" value="N" style="text;strokeColor=none;fillColor=none;spacingLeft=4;spacingRight=4;overflow=hidden;rotatable=0;points=[[0,0.5],[1,0.5]];portConstraint=eastwest;fontSize=12;whiteSpace=wrap;html=1;" vertex="1" parent="1">
          <mxGeometry x="-500" y="300" width="20" height="30" as="geometry" />
        </mxCell>
        <mxCell id="k6fut7D51PjR7yF_qjCp-40" value="1:N" style="text;strokeColor=none;fillColor=none;spacingLeft=4;spacingRight=4;overflow=hidden;rotatable=0;points=[[0,0.5],[1,0.5]];portConstraint=eastwest;fontSize=12;whiteSpace=wrap;html=1;" vertex="1" parent="1">
          <mxGeometry x="-368" y="270" width="30" height="30" as="geometry" />
        </mxCell>
        <mxCell id="k6fut7D51PjR7yF_qjCp-41" value="vende" style="shape=rhombus;perimeter=rhombusPerimeter;whiteSpace=wrap;html=1;align=center;" vertex="1" parent="1">
          <mxGeometry x="-210" y="540" width="120" height="60" as="geometry" />
        </mxCell>
        <mxCell id="k6fut7D51PjR7yF_qjCp-42" value="" style="fontSize=12;html=1;endArrow=ERoneToMany;rounded=0;" edge="1" parent="1" source="XHkAB7lpq5Ak0-Q2Nuyg-1" target="k6fut7D51PjR7yF_qjCp-41">
          <mxGeometry width="100" height="100" relative="1" as="geometry">
            <mxPoint x="-190" y="340" as="sourcePoint" />
            <mxPoint x="-283" y="340" as="targetPoint" />
          </mxGeometry>
        </mxCell>
        <mxCell id="k6fut7D51PjR7yF_qjCp-43" value="" style="fontSize=12;html=1;endArrow=ERoneToMany;rounded=0;" edge="1" parent="1" source="k6fut7D51PjR7yF_qjCp-41" target="k6fut7D51PjR7yF_qjCp-3">
          <mxGeometry width="100" height="100" relative="1" as="geometry">
            <mxPoint x="-132" y="640" as="sourcePoint" />
            <mxPoint x="-90" y="745" as="targetPoint" />
          </mxGeometry>
        </mxCell>
        <mxCell id="k6fut7D51PjR7yF_qjCp-44" value="1" style="text;strokeColor=none;fillColor=none;spacingLeft=4;spacingRight=4;overflow=hidden;rotatable=0;points=[[0,0.5],[1,0.5]];portConstraint=eastwest;fontSize=12;whiteSpace=wrap;html=1;" vertex="1" parent="1">
          <mxGeometry x="-150" y="350" width="20" height="30" as="geometry" />
        </mxCell>
        <mxCell id="k6fut7D51PjR7yF_qjCp-45" value="1:N" style="text;strokeColor=none;fillColor=none;spacingLeft=4;spacingRight=4;overflow=hidden;rotatable=0;points=[[0,0.5],[1,0.5]];portConstraint=eastwest;fontSize=12;whiteSpace=wrap;html=1;" vertex="1" parent="1">
          <mxGeometry x="-240" y="555" width="30" height="30" as="geometry" />
        </mxCell>
        <mxCell id="k6fut7D51PjR7yF_qjCp-46" value="N" style="text;strokeColor=none;fillColor=none;spacingLeft=4;spacingRight=4;overflow=hidden;rotatable=0;points=[[0,0.5],[1,0.5]];portConstraint=eastwest;fontSize=12;whiteSpace=wrap;html=1;" vertex="1" parent="1">
          <mxGeometry x="-180" y="820" width="20" height="30" as="geometry" />
        </mxCell>
        <mxCell id="k6fut7D51PjR7yF_qjCp-47" value="tiene" style="shape=rhombus;perimeter=rhombusPerimeter;whiteSpace=wrap;html=1;align=center;" vertex="1" parent="1">
          <mxGeometry x="150" y="830" width="120" height="60" as="geometry" />
        </mxCell>
        <mxCell id="k6fut7D51PjR7yF_qjCp-48" value="" style="fontSize=12;html=1;endArrow=ERoneToMany;rounded=0;" edge="1" parent="1" source="k6fut7D51PjR7yF_qjCp-4" target="k6fut7D51PjR7yF_qjCp-47">
          <mxGeometry width="100" height="100" relative="1" as="geometry">
            <mxPoint x="269.99801324503295" y="608.1709933774835" as="sourcePoint" />
            <mxPoint x="300" y="1010" as="targetPoint" />
          </mxGeometry>
        </mxCell>
        <mxCell id="k6fut7D51PjR7yF_qjCp-49" value="N" style="text;strokeColor=none;fillColor=none;spacingLeft=4;spacingRight=4;overflow=hidden;rotatable=0;points=[[0,0.5],[1,0.5]];portConstraint=eastwest;fontSize=12;whiteSpace=wrap;html=1;" vertex="1" parent="1">
          <mxGeometry x="-100" y="829.9999999999999" width="20" height="30" as="geometry" />
        </mxCell>
        <mxCell id="k6fut7D51PjR7yF_qjCp-50" value="" style="fontSize=12;html=1;endArrow=ERoneToMany;rounded=0;" edge="1" parent="1" source="k6fut7D51PjR7yF_qjCp-47" target="k6fut7D51PjR7yF_qjCp-3">
          <mxGeometry width="100" height="100" relative="1" as="geometry">
            <mxPoint x="20" y="750" as="sourcePoint" />
            <mxPoint x="-10" y="940" as="targetPoint" />
          </mxGeometry>
        </mxCell>
        <mxCell id="k6fut7D51PjR7yF_qjCp-51" value="1" style="text;strokeColor=none;fillColor=none;spacingLeft=4;spacingRight=4;overflow=hidden;rotatable=0;points=[[0,0.5],[1,0.5]];portConstraint=eastwest;fontSize=12;whiteSpace=wrap;html=1;" vertex="1" parent="1">
          <mxGeometry x="380" y="835" width="20" height="30" as="geometry" />
        </mxCell>
        <mxCell id="k6fut7D51PjR7yF_qjCp-52" value="1:N" style="text;strokeColor=none;fillColor=none;spacingLeft=4;spacingRight=4;overflow=hidden;rotatable=0;points=[[0,0.5],[1,0.5]];portConstraint=eastwest;fontSize=12;whiteSpace=wrap;html=1;" vertex="1" parent="1">
          <mxGeometry x="195" y="800" width="30" height="30" as="geometry" />
        </mxCell>
        <mxCell id="k6fut7D51PjR7yF_qjCp-53" value="tiene" style="shape=rhombus;perimeter=rhombusPerimeter;whiteSpace=wrap;html=1;align=center;" vertex="1" parent="1">
          <mxGeometry x="-210" y="120" width="120" height="60" as="geometry" />
        </mxCell>
        <mxCell id="k6fut7D51PjR7yF_qjCp-54" value="" style="fontSize=12;html=1;endArrow=ERmandOne;startArrow=ERmandOne;rounded=0;" edge="1" parent="1" source="XHkAB7lpq5Ak0-Q2Nuyg-1" target="k6fut7D51PjR7yF_qjCp-53">
          <mxGeometry width="100" height="100" relative="1" as="geometry">
            <mxPoint x="-323" y="180" as="sourcePoint" />
            <mxPoint x="-383" y="180" as="targetPoint" />
          </mxGeometry>
        </mxCell>
        <mxCell id="k6fut7D51PjR7yF_qjCp-55" value="" style="fontSize=12;html=1;endArrow=ERmandOne;startArrow=ERmandOne;rounded=0;" edge="1" parent="1" source="k6fut7D51PjR7yF_qjCp-53" target="k6fut7D51PjR7yF_qjCp-6">
          <mxGeometry width="100" height="100" relative="1" as="geometry">
            <mxPoint x="-140" y="320" as="sourcePoint" />
            <mxPoint x="-140" y="200" as="targetPoint" />
          </mxGeometry>
        </mxCell>
        <mxCell id="k6fut7D51PjR7yF_qjCp-56" value="1" style="text;strokeColor=none;fillColor=none;spacingLeft=4;spacingRight=4;overflow=hidden;rotatable=0;points=[[0,0.5],[1,0.5]];portConstraint=eastwest;fontSize=12;whiteSpace=wrap;html=1;" vertex="1" parent="1">
          <mxGeometry x="-170" y="290" width="20" height="30" as="geometry" />
        </mxCell>
        <mxCell id="k6fut7D51PjR7yF_qjCp-57" value="1" style="text;strokeColor=none;fillColor=none;spacingLeft=4;spacingRight=4;overflow=hidden;rotatable=0;points=[[0,0.5],[1,0.5]];portConstraint=eastwest;fontSize=12;whiteSpace=wrap;html=1;" vertex="1" parent="1">
          <mxGeometry x="-170" y="-10" width="20" height="30" as="geometry" />
        </mxCell>
        <mxCell id="k6fut7D51PjR7yF_qjCp-58" value="1:1" style="text;strokeColor=none;fillColor=none;spacingLeft=4;spacingRight=4;overflow=hidden;rotatable=0;points=[[0,0.5],[1,0.5]];portConstraint=eastwest;fontSize=12;whiteSpace=wrap;html=1;" vertex="1" parent="1">
          <mxGeometry x="-240" y="135" width="30" height="30" as="geometry" />
        </mxCell>
        <mxCell id="k6fut7D51PjR7yF_qjCp-59" value="" style="edgeStyle=entityRelationEdgeStyle;fontSize=12;html=1;endArrow=ERoneToMany;rounded=0;" edge="1" parent="1" source="k6fut7D51PjR7yF_qjCp-6" target="k6fut7D51PjR7yF_qjCp-8">
          <mxGeometry width="100" height="100" relative="1" as="geometry">
            <mxPoint x="-403" y="340" as="sourcePoint" />
            <mxPoint x="-750" y="130" as="targetPoint" />
          </mxGeometry>
        </mxCell>
        <mxCell id="k6fut7D51PjR7yF_qjCp-60" value="" style="edgeStyle=entityRelationEdgeStyle;fontSize=12;html=1;endArrow=ERoneToMany;rounded=0;" edge="1" parent="1" source="k6fut7D51PjR7yF_qjCp-8" target="k6fut7D51PjR7yF_qjCp-21">
          <mxGeometry width="100" height="100" relative="1" as="geometry">
            <mxPoint x="-190" y="-10" as="sourcePoint" />
            <mxPoint x="-310" y="-10" as="targetPoint" />
          </mxGeometry>
        </mxCell>
        <mxCell id="k6fut7D51PjR7yF_qjCp-61" value="1:N" style="text;strokeColor=none;fillColor=none;spacingLeft=4;spacingRight=4;overflow=hidden;rotatable=0;points=[[0,0.5],[1,0.5]];portConstraint=eastwest;fontSize=12;whiteSpace=wrap;html=1;" vertex="1" parent="1">
          <mxGeometry x="-395" y="-80" width="30" height="30" as="geometry" />
        </mxCell>
        <mxCell id="k6fut7D51PjR7yF_qjCp-62" value="1" style="text;strokeColor=none;fillColor=none;spacingLeft=4;spacingRight=4;overflow=hidden;rotatable=0;points=[[0,0.5],[1,0.5]];portConstraint=eastwest;fontSize=12;whiteSpace=wrap;html=1;" vertex="1" parent="1">
          <mxGeometry x="-220" y="-50" width="20" height="30" as="geometry" />
        </mxCell>
        <mxCell id="k6fut7D51PjR7yF_qjCp-63" value="N" style="text;strokeColor=none;fillColor=none;spacingLeft=4;spacingRight=4;overflow=hidden;rotatable=0;points=[[0,0.5],[1,0.5]];portConstraint=eastwest;fontSize=12;whiteSpace=wrap;html=1;" vertex="1" parent="1">
          <mxGeometry x="-550" y="-50" width="20" height="30" as="geometry" />
        </mxCell>
        <mxCell id="k6fut7D51PjR7yF_qjCp-64" value="" style="edgeStyle=orthogonalEdgeStyle;fontSize=12;html=1;endArrow=ERoneToMany;rounded=0;" edge="1" parent="1" source="k6fut7D51PjR7yF_qjCp-3" target="k6fut7D51PjR7yF_qjCp-65">
          <mxGeometry width="100" height="100" relative="1" as="geometry">
            <mxPoint x="-430" y="-10" as="sourcePoint" />
            <mxPoint x="-510" y="500" as="targetPoint" />
            <Array as="points">
              <mxPoint x="-740" y="860" />
            </Array>
          </mxGeometry>
        </mxCell>
        <mxCell id="k6fut7D51PjR7yF_qjCp-66" value="" style="edgeStyle=orthogonalEdgeStyle;fontSize=12;html=1;endArrow=ERoneToMany;rounded=0;" edge="1" parent="1" source="k6fut7D51PjR7yF_qjCp-65" target="k6fut7D51PjR7yF_qjCp-21">
          <mxGeometry width="100" height="100" relative="1" as="geometry">
            <mxPoint x="-700" y="-20" as="sourcePoint" />
            <mxPoint x="-670" y="150" as="targetPoint" />
            <Array as="points">
              <mxPoint x="-740" y="-20" />
            </Array>
          </mxGeometry>
        </mxCell>
        <mxCell id="k6fut7D51PjR7yF_qjCp-65" value="tiene" style="shape=rhombus;perimeter=rhombusPerimeter;whiteSpace=wrap;html=1;align=center;" vertex="1" parent="1">
          <mxGeometry x="-800" y="290" width="120" height="60" as="geometry" />
        </mxCell>
        <mxCell id="k6fut7D51PjR7yF_qjCp-67" value="1:N" style="text;strokeColor=none;fillColor=none;spacingLeft=4;spacingRight=4;overflow=hidden;rotatable=0;points=[[0,0.5],[1,0.5]];portConstraint=eastwest;fontSize=12;whiteSpace=wrap;html=1;" vertex="1" parent="1">
          <mxGeometry x="-830" y="305" width="30" height="30" as="geometry" />
        </mxCell>
        <mxCell id="k6fut7D51PjR7yF_qjCp-68" value="1" style="text;strokeColor=none;fillColor=none;spacingLeft=4;spacingRight=4;overflow=hidden;rotatable=0;points=[[0,0.5],[1,0.5]];portConstraint=eastwest;fontSize=12;whiteSpace=wrap;html=1;" vertex="1" parent="1">
          <mxGeometry x="-220" y="830" width="20" height="30" as="geometry" />
        </mxCell>
        <mxCell id="k6fut7D51PjR7yF_qjCp-69" value="N" style="text;strokeColor=none;fillColor=none;spacingLeft=4;spacingRight=4;overflow=hidden;rotatable=0;points=[[0,0.5],[1,0.5]];portConstraint=eastwest;fontSize=12;whiteSpace=wrap;html=1;" vertex="1" parent="1">
          <mxGeometry x="-720" y="-50" width="20" height="30" as="geometry" />
        </mxCell>
        <mxCell id="k6fut7D51PjR7yF_qjCp-71" value="" style="edgeStyle=entityRelationEdgeStyle;fontSize=12;html=1;endArrow=ERoneToMany;rounded=0;" edge="1" parent="1" source="k6fut7D51PjR7yF_qjCp-70" target="k6fut7D51PjR7yF_qjCp-26">
          <mxGeometry width="100" height="100" relative="1" as="geometry">
            <mxPoint x="-403" y="340" as="sourcePoint" />
            <mxPoint x="-490" y="340" as="targetPoint" />
          </mxGeometry>
        </mxCell>
        <mxCell id="k6fut7D51PjR7yF_qjCp-72" value="" style="edgeStyle=entityRelationEdgeStyle;fontSize=12;html=1;endArrow=ERoneToMany;rounded=0;" edge="1" parent="1" source="XHkAB7lpq5Ak0-Q2Nuyg-1" target="k6fut7D51PjR7yF_qjCp-70">
          <mxGeometry width="100" height="100" relative="1" as="geometry">
            <mxPoint x="-200" y="330" as="sourcePoint" />
            <mxPoint x="-440" y="540" as="targetPoint" />
          </mxGeometry>
        </mxCell>
        <mxCell id="k6fut7D51PjR7yF_qjCp-70" value="tiene" style="shape=rhombus;perimeter=rhombusPerimeter;whiteSpace=wrap;html=1;align=center;" vertex="1" parent="1">
          <mxGeometry x="-395" y="440" width="120" height="60" as="geometry" />
        </mxCell>
        <mxCell id="k6fut7D51PjR7yF_qjCp-73" value="N" style="text;strokeColor=none;fillColor=none;spacingLeft=4;spacingRight=4;overflow=hidden;rotatable=0;points=[[0,0.5],[1,0.5]];portConstraint=eastwest;fontSize=12;whiteSpace=wrap;html=1;" vertex="1" parent="1">
          <mxGeometry x="-510" y="440" width="20" height="30" as="geometry" />
        </mxCell>
        <mxCell id="k6fut7D51PjR7yF_qjCp-74" value="1:N" style="text;strokeColor=none;fillColor=none;spacingLeft=4;spacingRight=4;overflow=hidden;rotatable=0;points=[[0,0.5],[1,0.5]];portConstraint=eastwest;fontSize=12;whiteSpace=wrap;html=1;" vertex="1" parent="1">
          <mxGeometry x="-350" y="410" width="30" height="30" as="geometry" />
        </mxCell>
        <mxCell id="k6fut7D51PjR7yF_qjCp-75" value="" style="fontSize=12;html=1;endArrow=ERoneToMany;rounded=0;" edge="1" parent="1" source="k6fut7D51PjR7yF_qjCp-76" target="k6fut7D51PjR7yF_qjCp-25">
          <mxGeometry width="100" height="100" relative="1" as="geometry">
            <mxPoint x="-385" y="480" as="sourcePoint" />
            <mxPoint x="-500" y="480" as="targetPoint" />
          </mxGeometry>
        </mxCell>
        <mxCell id="k6fut7D51PjR7yF_qjCp-77" value="" style="fontSize=12;html=1;endArrow=ERoneToMany;rounded=0;" edge="1" parent="1" source="k6fut7D51PjR7yF_qjCp-26" target="k6fut7D51PjR7yF_qjCp-76">
          <mxGeometry width="100" height="100" relative="1" as="geometry">
            <mxPoint x="-510" y="470" as="sourcePoint" />
            <mxPoint x="-490" y="620" as="targetPoint" />
          </mxGeometry>
        </mxCell>
        <mxCell id="k6fut7D51PjR7yF_qjCp-76" value="tiene" style="shape=rhombus;perimeter=rhombusPerimeter;whiteSpace=wrap;html=1;align=center;" vertex="1" parent="1">
          <mxGeometry x="-620" y="570" width="120" height="60" as="geometry" />
        </mxCell>
        <mxCell id="k6fut7D51PjR7yF_qjCp-78" value="1" style="text;strokeColor=none;fillColor=none;spacingLeft=4;spacingRight=4;overflow=hidden;rotatable=0;points=[[0,0.5],[1,0.5]];portConstraint=eastwest;fontSize=12;whiteSpace=wrap;html=1;" vertex="1" parent="1">
          <mxGeometry x="-580" y="490" width="20" height="30" as="geometry" />
        </mxCell>
        <mxCell id="k6fut7D51PjR7yF_qjCp-80" value="N" style="text;strokeColor=none;fillColor=none;spacingLeft=4;spacingRight=4;overflow=hidden;rotatable=0;points=[[0,0.5],[1,0.5]];portConstraint=eastwest;fontSize=12;whiteSpace=wrap;html=1;" vertex="1" parent="1">
          <mxGeometry x="-550" y="680" width="20" height="30" as="geometry" />
        </mxCell>
        <mxCell id="k6fut7D51PjR7yF_qjCp-81" value="1:N" style="text;strokeColor=none;fillColor=none;spacingLeft=4;spacingRight=4;overflow=hidden;rotatable=0;points=[[0,0.5],[1,0.5]];portConstraint=eastwest;fontSize=12;whiteSpace=wrap;html=1;" vertex="1" parent="1">
          <mxGeometry x="-490" y="585" width="30" height="30" as="geometry" />
        </mxCell>
        <mxCell id="k6fut7D51PjR7yF_qjCp-82" value="tiene" style="shape=rhombus;perimeter=rhombusPerimeter;whiteSpace=wrap;html=1;align=center;" vertex="1" parent="1">
          <mxGeometry x="-413" y="710" width="120" height="60" as="geometry" />
        </mxCell>
        <mxCell id="k6fut7D51PjR7yF_qjCp-83" value="" style="fontSize=12;html=1;endArrow=ERoneToMany;rounded=0;" edge="1" source="k6fut7D51PjR7yF_qjCp-82" parent="1" target="k6fut7D51PjR7yF_qjCp-25">
          <mxGeometry width="100" height="100" relative="1" as="geometry">
            <mxPoint x="-178" y="610" as="sourcePoint" />
            <mxPoint x="-453" y="741.7647058823532" as="targetPoint" />
          </mxGeometry>
        </mxCell>
        <mxCell id="k6fut7D51PjR7yF_qjCp-84" value="1:N" style="text;strokeColor=none;fillColor=none;spacingLeft=4;spacingRight=4;overflow=hidden;rotatable=0;points=[[0,0.5],[1,0.5]];portConstraint=eastwest;fontSize=12;whiteSpace=wrap;html=1;" vertex="1" parent="1">
          <mxGeometry x="-365" y="680" width="30" height="30" as="geometry" />
        </mxCell>
        <mxCell id="k6fut7D51PjR7yF_qjCp-85" value="N" style="text;strokeColor=none;fillColor=none;spacingLeft=4;spacingRight=4;overflow=hidden;rotatable=0;points=[[0,0.5],[1,0.5]];portConstraint=eastwest;fontSize=12;whiteSpace=wrap;html=1;" vertex="1" parent="1">
          <mxGeometry x="-485" y="705" width="20" height="30" as="geometry" />
        </mxCell>
        <mxCell id="k6fut7D51PjR7yF_qjCp-86" value="" style="edgeStyle=entityRelationEdgeStyle;fontSize=12;html=1;endArrow=ERoneToMany;rounded=0;" edge="1" parent="1" source="k6fut7D51PjR7yF_qjCp-3" target="k6fut7D51PjR7yF_qjCp-82">
          <mxGeometry width="100" height="100" relative="1" as="geometry">
            <mxPoint x="-190" y="340" as="sourcePoint" />
            <mxPoint x="-265" y="480" as="targetPoint" />
          </mxGeometry>
        </mxCell>
        <mxCell id="k6fut7D51PjR7yF_qjCp-88" value="ratings" style="shape=associativeEntity;whiteSpace=wrap;html=1;align=center;" vertex="1" parent="1">
          <mxGeometry x="110" y="490" width="140" height="60" as="geometry" />
        </mxCell>
        <mxCell id="k6fut7D51PjR7yF_qjCp-89" value="" style="edgeStyle=entityRelationEdgeStyle;fontSize=12;html=1;endArrow=ERoneToMany;rounded=0;" edge="1" parent="1" source="XHkAB7lpq5Ak0-Q2Nuyg-1" target="k6fut7D51PjR7yF_qjCp-88">
          <mxGeometry width="100" height="100" relative="1" as="geometry">
            <mxPoint x="-190" y="340" as="sourcePoint" />
            <mxPoint x="-265" y="480" as="targetPoint" />
          </mxGeometry>
        </mxCell>
        <mxCell id="k6fut7D51PjR7yF_qjCp-90" value="" style="fontSize=12;html=1;endArrow=ERoneToMany;rounded=0;" edge="1" parent="1" source="k6fut7D51PjR7yF_qjCp-3" target="k6fut7D51PjR7yF_qjCp-88">
          <mxGeometry width="100" height="100" relative="1" as="geometry">
            <mxPoint x="-90" y="340" as="sourcePoint" />
            <mxPoint y="530" as="targetPoint" />
          </mxGeometry>
        </mxCell>
        <mxCell id="k6fut7D51PjR7yF_qjCp-91" value="1" style="text;strokeColor=none;fillColor=none;spacingLeft=4;spacingRight=4;overflow=hidden;rotatable=0;points=[[0,0.5],[1,0.5]];portConstraint=eastwest;fontSize=12;whiteSpace=wrap;html=1;" vertex="1" parent="1">
          <mxGeometry x="-140" y="805" width="20" height="30" as="geometry" />
        </mxCell>
        <mxCell id="k6fut7D51PjR7yF_qjCp-92" value="" style="edgeStyle=entityRelationEdgeStyle;fontSize=12;html=1;endArrow=ERoneToMany;rounded=0;" edge="1" parent="1" source="k6fut7D51PjR7yF_qjCp-93" target="k6fut7D51PjR7yF_qjCp-31">
          <mxGeometry width="100" height="100" relative="1" as="geometry">
            <mxPoint x="-90" y="340" as="sourcePoint" />
            <mxPoint x="140" y="100" as="targetPoint" />
          </mxGeometry>
        </mxCell>
        <mxCell id="k6fut7D51PjR7yF_qjCp-94" value="" style="edgeStyle=entityRelationEdgeStyle;fontSize=12;html=1;endArrow=ERoneToMany;rounded=0;" edge="1" parent="1" source="XHkAB7lpq5Ak0-Q2Nuyg-1" target="k6fut7D51PjR7yF_qjCp-93">
          <mxGeometry width="100" height="100" relative="1" as="geometry">
            <mxPoint x="-100" y="330" as="sourcePoint" />
            <mxPoint x="45" y="30" as="targetPoint" />
          </mxGeometry>
        </mxCell>
        <mxCell id="k6fut7D51PjR7yF_qjCp-93" value="hace" style="shape=rhombus;perimeter=rhombusPerimeter;whiteSpace=wrap;html=1;align=center;" vertex="1" parent="1">
          <mxGeometry x="10" y="110" width="120" height="60" as="geometry" />
        </mxCell>
        <mxCell id="k6fut7D51PjR7yF_qjCp-96" value="" style="edgeStyle=entityRelationEdgeStyle;fontSize=12;html=1;endArrow=ERoneToMany;rounded=0;" edge="1" parent="1" source="k6fut7D51PjR7yF_qjCp-97" target="k6fut7D51PjR7yF_qjCp-31">
          <mxGeometry width="100" height="100" relative="1" as="geometry">
            <mxPoint x="140" y="150" as="sourcePoint" />
            <mxPoint x="210" y="180" as="targetPoint" />
          </mxGeometry>
        </mxCell>
        <mxCell id="k6fut7D51PjR7yF_qjCp-98" value="" style="edgeStyle=entityRelationEdgeStyle;fontSize=12;html=1;endArrow=ERoneToMany;rounded=0;" edge="1" parent="1" source="XHkAB7lpq5Ak0-Q2Nuyg-1" target="k6fut7D51PjR7yF_qjCp-97">
          <mxGeometry width="100" height="100" relative="1" as="geometry">
            <mxPoint x="-100" y="330" as="sourcePoint" />
            <mxPoint x="210" y="180" as="targetPoint" />
          </mxGeometry>
        </mxCell>
        <mxCell id="k6fut7D51PjR7yF_qjCp-97" value="recibe" style="shape=rhombus;perimeter=rhombusPerimeter;whiteSpace=wrap;html=1;align=center;" vertex="1" parent="1">
          <mxGeometry x="15" y="200" width="120" height="60" as="geometry" />
        </mxCell>
        <mxCell id="k6fut7D51PjR7yF_qjCp-99" value="" style="edgeStyle=orthogonalEdgeStyle;fontSize=12;html=1;endArrow=ERoneToMany;rounded=0;" edge="1" parent="1" source="k6fut7D51PjR7yF_qjCp-100" target="k6fut7D51PjR7yF_qjCp-32">
          <mxGeometry width="100" height="100" relative="1" as="geometry">
            <mxPoint x="-190" y="340" as="sourcePoint" />
            <mxPoint x="-265" y="480" as="targetPoint" />
          </mxGeometry>
        </mxCell>
        <mxCell id="k6fut7D51PjR7yF_qjCp-101" value="" style="edgeStyle=entityRelationEdgeStyle;fontSize=12;html=1;endArrow=ERoneToMany;rounded=0;" edge="1" parent="1" source="XHkAB7lpq5Ak0-Q2Nuyg-1" target="k6fut7D51PjR7yF_qjCp-100">
          <mxGeometry width="100" height="100" relative="1" as="geometry">
            <mxPoint x="-190" y="340" as="sourcePoint" />
            <mxPoint x="-390" y="120" as="targetPoint" />
          </mxGeometry>
        </mxCell>
        <mxCell id="k6fut7D51PjR7yF_qjCp-100" value="recibe" style="shape=rhombus;perimeter=rhombusPerimeter;whiteSpace=wrap;html=1;align=center;" vertex="1" parent="1">
          <mxGeometry x="-470" y="170" width="120" height="60" as="geometry" />
        </mxCell>
        <mxCell id="k6fut7D51PjR7yF_qjCp-102" value="N" style="text;strokeColor=none;fillColor=none;spacingLeft=4;spacingRight=4;overflow=hidden;rotatable=0;points=[[0,0.5],[1,0.5]];portConstraint=eastwest;fontSize=12;whiteSpace=wrap;html=1;" vertex="1" parent="1">
          <mxGeometry x="180" y="169.9999999999999" width="20" height="30" as="geometry" />
        </mxCell>
        <mxCell id="k6fut7D51PjR7yF_qjCp-103" value="1:N" style="text;strokeColor=none;fillColor=none;spacingLeft=4;spacingRight=4;overflow=hidden;rotatable=0;points=[[0,0.5],[1,0.5]];portConstraint=eastwest;fontSize=12;whiteSpace=wrap;html=1;" vertex="1" parent="1">
          <mxGeometry x="55" y="80" width="30" height="30" as="geometry" />
        </mxCell>
        <mxCell id="k6fut7D51PjR7yF_qjCp-104" value="1:N" style="text;strokeColor=none;fillColor=none;spacingLeft=4;spacingRight=4;overflow=hidden;rotatable=0;points=[[0,0.5],[1,0.5]];portConstraint=eastwest;fontSize=12;whiteSpace=wrap;html=1;" vertex="1" parent="1">
          <mxGeometry x="60" y="260" width="30" height="30" as="geometry" />
        </mxCell>
      </root>
    </mxGraphModel>
  </diagram>
</mxfile>
